<mxfile host="Electron" modified="2024-06-10T09:05:59.700Z" agent="Mozilla/5.0 (Windows NT 10.0; Win64; x64) AppleWebKit/537.36 (KHTML, like Gecko) draw.io/24.5.1 Chrome/124.0.6367.207 Electron/30.0.6 Safari/537.36" etag="e849QWCz255gUme4Kt28" version="24.5.1" type="device">
  <diagram id="C5RBs43oDa-KdzZeNtuy" name="Page-1">
    <mxGraphModel dx="2736" dy="2298" grid="1" gridSize="10" guides="1" tooltips="1" connect="1" arrows="1" fold="1" page="1" pageScale="1" pageWidth="827" pageHeight="1169" math="0" shadow="0">
      <root>
        <mxCell id="WIyWlLk6GJQsqaUBKTNV-0" />
        <mxCell id="WIyWlLk6GJQsqaUBKTNV-1" parent="WIyWlLk6GJQsqaUBKTNV-0" />
        <mxCell id="fLtGwt295DTugF5iX0_y-0" value="пользователь" style="rounded=0;whiteSpace=wrap;html=1;fontSize=20;" parent="WIyWlLk6GJQsqaUBKTNV-1" vertex="1">
          <mxGeometry x="210" y="50" width="130" height="60" as="geometry" />
        </mxCell>
        <mxCell id="fLtGwt295DTugF5iX0_y-1" value="карточка" style="rounded=0;whiteSpace=wrap;html=1;fontSize=20;" parent="WIyWlLk6GJQsqaUBKTNV-1" vertex="1">
          <mxGeometry x="-170" y="-60" width="120" height="60" as="geometry" />
        </mxCell>
        <mxCell id="fLtGwt295DTugF5iX0_y-2" value="врач" style="rounded=0;whiteSpace=wrap;html=1;fontSize=20;" parent="WIyWlLk6GJQsqaUBKTNV-1" vertex="1">
          <mxGeometry x="-130" y="610" width="120" height="60" as="geometry" />
        </mxCell>
        <mxCell id="fLtGwt295DTugF5iX0_y-3" value="специальность" style="rounded=0;whiteSpace=wrap;html=1;fontSize=20;" parent="WIyWlLk6GJQsqaUBKTNV-1" vertex="1">
          <mxGeometry x="258" y="610" width="146" height="60" as="geometry" />
        </mxCell>
        <mxCell id="fLtGwt295DTugF5iX0_y-4" value="запись" style="rounded=0;whiteSpace=wrap;html=1;fontSize=20;" parent="WIyWlLk6GJQsqaUBKTNV-1" vertex="1">
          <mxGeometry x="-150" y="280" width="120" height="60" as="geometry" />
        </mxCell>
        <mxCell id="fLtGwt295DTugF5iX0_y-5" value="есть" style="rhombus;whiteSpace=wrap;html=1;fontSize=20;" parent="WIyWlLk6GJQsqaUBKTNV-1" vertex="1">
          <mxGeometry x="90" y="600" width="80" height="80" as="geometry" />
        </mxCell>
        <mxCell id="fLtGwt295DTugF5iX0_y-6" value="" style="endArrow=none;html=1;rounded=0;entryX=0;entryY=0.5;entryDx=0;entryDy=0;exitX=1;exitY=0.5;exitDx=0;exitDy=0;fontSize=20;" parent="WIyWlLk6GJQsqaUBKTNV-1" source="fLtGwt295DTugF5iX0_y-2" target="fLtGwt295DTugF5iX0_y-5" edge="1">
          <mxGeometry width="50" height="50" relative="1" as="geometry">
            <mxPoint x="150" y="620" as="sourcePoint" />
            <mxPoint x="200" y="570" as="targetPoint" />
          </mxGeometry>
        </mxCell>
        <mxCell id="fLtGwt295DTugF5iX0_y-7" value="" style="endArrow=none;html=1;rounded=0;entryX=0;entryY=0.5;entryDx=0;entryDy=0;exitX=1;exitY=0.5;exitDx=0;exitDy=0;fontSize=20;" parent="WIyWlLk6GJQsqaUBKTNV-1" source="fLtGwt295DTugF5iX0_y-5" target="fLtGwt295DTugF5iX0_y-3" edge="1">
          <mxGeometry width="50" height="50" relative="1" as="geometry">
            <mxPoint x="290" y="620" as="sourcePoint" />
            <mxPoint x="340" y="570" as="targetPoint" />
          </mxGeometry>
        </mxCell>
        <mxCell id="fLtGwt295DTugF5iX0_y-8" value="записывается" style="rhombus;whiteSpace=wrap;html=1;fontSize=20;" parent="WIyWlLk6GJQsqaUBKTNV-1" vertex="1">
          <mxGeometry x="180" y="330" width="150" height="130" as="geometry" />
        </mxCell>
        <mxCell id="fLtGwt295DTugF5iX0_y-9" value="" style="endArrow=none;html=1;rounded=0;entryX=0.394;entryY=0.996;entryDx=0;entryDy=0;exitX=0.5;exitY=0;exitDx=0;exitDy=0;entryPerimeter=0;fontSize=20;" parent="WIyWlLk6GJQsqaUBKTNV-1" source="fLtGwt295DTugF5iX0_y-8" target="fLtGwt295DTugF5iX0_y-0" edge="1">
          <mxGeometry width="50" height="50" relative="1" as="geometry">
            <mxPoint x="170" y="370" as="sourcePoint" />
            <mxPoint x="80" y="70" as="targetPoint" />
          </mxGeometry>
        </mxCell>
        <mxCell id="fLtGwt295DTugF5iX0_y-10" value="" style="endArrow=none;html=1;rounded=0;entryX=0.5;entryY=1;entryDx=0;entryDy=0;exitX=1;exitY=0;exitDx=0;exitDy=0;fontSize=20;" parent="WIyWlLk6GJQsqaUBKTNV-1" source="fLtGwt295DTugF5iX0_y-2" target="fLtGwt295DTugF5iX0_y-8" edge="1">
          <mxGeometry width="50" height="50" relative="1" as="geometry">
            <mxPoint x="-90" y="160" as="sourcePoint" />
            <mxPoint x="-40" y="110" as="targetPoint" />
            <Array as="points">
              <mxPoint x="-10" y="450" />
            </Array>
          </mxGeometry>
        </mxCell>
        <mxCell id="fLtGwt295DTugF5iX0_y-11" value="назначается" style="rhombus;whiteSpace=wrap;html=1;fontSize=20;" parent="WIyWlLk6GJQsqaUBKTNV-1" vertex="1">
          <mxGeometry x="-160" y="370" width="140" height="120" as="geometry" />
        </mxCell>
        <mxCell id="fLtGwt295DTugF5iX0_y-12" value="" style="endArrow=none;html=1;rounded=0;entryX=0.5;entryY=1;entryDx=0;entryDy=0;exitX=0.346;exitY=0.012;exitDx=0;exitDy=0;exitPerimeter=0;fontSize=20;" parent="WIyWlLk6GJQsqaUBKTNV-1" source="fLtGwt295DTugF5iX0_y-2" target="fLtGwt295DTugF5iX0_y-11" edge="1">
          <mxGeometry width="50" height="50" relative="1" as="geometry">
            <mxPoint x="-60" y="590" as="sourcePoint" />
            <mxPoint x="-70" y="530" as="targetPoint" />
            <Array as="points" />
          </mxGeometry>
        </mxCell>
        <mxCell id="fLtGwt295DTugF5iX0_y-13" value="" style="endArrow=none;html=1;rounded=0;entryX=0.5;entryY=1;entryDx=0;entryDy=0;exitX=0.5;exitY=0;exitDx=0;exitDy=0;fontSize=20;" parent="WIyWlLk6GJQsqaUBKTNV-1" source="fLtGwt295DTugF5iX0_y-11" target="fLtGwt295DTugF5iX0_y-4" edge="1">
          <mxGeometry width="50" height="50" relative="1" as="geometry">
            <mxPoint x="-80" y="360" as="sourcePoint" />
            <mxPoint x="-30" y="310" as="targetPoint" />
          </mxGeometry>
        </mxCell>
        <mxCell id="fLtGwt295DTugF5iX0_y-14" value="вносится" style="rhombus;whiteSpace=wrap;html=1;fontSize=20;" parent="WIyWlLk6GJQsqaUBKTNV-1" vertex="1">
          <mxGeometry x="-150" y="90" width="100" height="80" as="geometry" />
        </mxCell>
        <mxCell id="fLtGwt295DTugF5iX0_y-15" value="заводят" style="rhombus;whiteSpace=wrap;html=1;fontSize=20;" parent="WIyWlLk6GJQsqaUBKTNV-1" vertex="1">
          <mxGeometry x="10" y="40" width="90" height="70" as="geometry" />
        </mxCell>
        <mxCell id="fLtGwt295DTugF5iX0_y-16" value="" style="endArrow=none;html=1;rounded=0;entryX=1.067;entryY=0.181;entryDx=0;entryDy=0;exitX=1;exitY=0.5;exitDx=0;exitDy=0;entryPerimeter=0;fontSize=20;" parent="WIyWlLk6GJQsqaUBKTNV-1" source="fLtGwt295DTugF5iX0_y-15" target="fLtGwt295DTugF5iX0_y-24" edge="1">
          <mxGeometry width="50" height="50" relative="1" as="geometry">
            <mxPoint x="140" y="130" as="sourcePoint" />
            <mxPoint x="190" y="80" as="targetPoint" />
          </mxGeometry>
        </mxCell>
        <mxCell id="fLtGwt295DTugF5iX0_y-17" value="" style="endArrow=none;html=1;rounded=0;entryX=0.575;entryY=1.061;entryDx=0;entryDy=0;exitX=0.5;exitY=0;exitDx=0;exitDy=0;entryPerimeter=0;fontSize=20;" parent="WIyWlLk6GJQsqaUBKTNV-1" source="fLtGwt295DTugF5iX0_y-14" target="fLtGwt295DTugF5iX0_y-1" edge="1">
          <mxGeometry width="50" height="50" relative="1" as="geometry">
            <mxPoint x="140" y="220" as="sourcePoint" />
            <mxPoint x="210" y="170" as="targetPoint" />
          </mxGeometry>
        </mxCell>
        <mxCell id="fLtGwt295DTugF5iX0_y-18" value="" style="endArrow=none;html=1;rounded=0;entryX=0.5;entryY=1;entryDx=0;entryDy=0;exitX=0.421;exitY=-0.006;exitDx=0;exitDy=0;exitPerimeter=0;fontSize=20;" parent="WIyWlLk6GJQsqaUBKTNV-1" source="fLtGwt295DTugF5iX0_y-4" target="fLtGwt295DTugF5iX0_y-14" edge="1">
          <mxGeometry width="50" height="50" relative="1" as="geometry">
            <mxPoint x="-20" y="190" as="sourcePoint" />
            <mxPoint x="30" y="140" as="targetPoint" />
          </mxGeometry>
        </mxCell>
        <mxCell id="fLtGwt295DTugF5iX0_y-20" value="" style="endArrow=none;html=1;rounded=0;entryX=0;entryY=0.5;entryDx=0;entryDy=0;exitX=1.014;exitY=0.639;exitDx=0;exitDy=0;exitPerimeter=0;fontSize=20;" parent="WIyWlLk6GJQsqaUBKTNV-1" source="fLtGwt295DTugF5iX0_y-1" target="fLtGwt295DTugF5iX0_y-15" edge="1">
          <mxGeometry width="50" height="50" relative="1" as="geometry">
            <mxPoint x="160" y="220" as="sourcePoint" />
            <mxPoint x="210" y="170" as="targetPoint" />
            <Array as="points">
              <mxPoint x="10" y="-22" />
            </Array>
          </mxGeometry>
        </mxCell>
        <mxCell id="fLtGwt295DTugF5iX0_y-21" value="1" style="text;html=1;align=center;verticalAlign=middle;resizable=0;points=[];autosize=1;strokeColor=none;fillColor=none;fontSize=20;" parent="WIyWlLk6GJQsqaUBKTNV-1" vertex="1">
          <mxGeometry x="-100" y="-5" width="30" height="40" as="geometry" />
        </mxCell>
        <mxCell id="fLtGwt295DTugF5iX0_y-23" value="м" style="text;html=1;align=center;verticalAlign=middle;resizable=0;points=[];autosize=1;strokeColor=none;fillColor=none;fontSize=20;" parent="WIyWlLk6GJQsqaUBKTNV-1" vertex="1">
          <mxGeometry x="-105" y="235" width="40" height="40" as="geometry" />
        </mxCell>
        <mxCell id="fLtGwt295DTugF5iX0_y-24" value="1" style="text;html=1;align=center;verticalAlign=middle;resizable=0;points=[];autosize=1;strokeColor=none;fillColor=none;fontSize=20;" parent="WIyWlLk6GJQsqaUBKTNV-1" vertex="1">
          <mxGeometry x="180" y="70" width="30" height="40" as="geometry" />
        </mxCell>
        <mxCell id="fLtGwt295DTugF5iX0_y-27" value="м" style="text;html=1;align=center;verticalAlign=middle;resizable=0;points=[];autosize=1;strokeColor=none;fillColor=none;fontSize=20;" parent="WIyWlLk6GJQsqaUBKTNV-1" vertex="1">
          <mxGeometry x="-85" y="325" width="40" height="40" as="geometry" />
        </mxCell>
        <mxCell id="fLtGwt295DTugF5iX0_y-28" value="1" style="text;html=1;align=center;verticalAlign=middle;resizable=0;points=[];autosize=1;strokeColor=none;fillColor=none;fontSize=20;" parent="WIyWlLk6GJQsqaUBKTNV-1" vertex="1">
          <mxGeometry x="-90" y="575" width="30" height="40" as="geometry" />
        </mxCell>
        <mxCell id="fLtGwt295DTugF5iX0_y-29" value="м" style="text;html=1;align=center;verticalAlign=middle;resizable=0;points=[];autosize=1;strokeColor=none;fillColor=none;fontSize=20;" parent="WIyWlLk6GJQsqaUBKTNV-1" vertex="1">
          <mxGeometry x="-15" y="605" width="40" height="40" as="geometry" />
        </mxCell>
        <mxCell id="fLtGwt295DTugF5iX0_y-30" value="1" style="text;html=1;align=center;verticalAlign=middle;resizable=0;points=[];autosize=1;strokeColor=none;fillColor=none;fontSize=20;" parent="WIyWlLk6GJQsqaUBKTNV-1" vertex="1">
          <mxGeometry x="234" y="605" width="30" height="40" as="geometry" />
        </mxCell>
        <mxCell id="fLtGwt295DTugF5iX0_y-31" value="дата рождения" style="ellipse;whiteSpace=wrap;html=1;fontSize=20;" parent="WIyWlLk6GJQsqaUBKTNV-1" vertex="1">
          <mxGeometry x="-320" y="-230" width="130" height="70" as="geometry" />
        </mxCell>
        <mxCell id="fLtGwt295DTugF5iX0_y-32" value="фамилия" style="ellipse;whiteSpace=wrap;html=1;fontSize=20;" parent="WIyWlLk6GJQsqaUBKTNV-1" vertex="1">
          <mxGeometry x="460" y="30" width="110" height="40" as="geometry" />
        </mxCell>
        <mxCell id="fLtGwt295DTugF5iX0_y-33" value="почта" style="ellipse;whiteSpace=wrap;html=1;fontSize=20;" parent="WIyWlLk6GJQsqaUBKTNV-1" vertex="1">
          <mxGeometry x="250" y="-80" width="110" height="40" as="geometry" />
        </mxCell>
        <mxCell id="fLtGwt295DTugF5iX0_y-34" value="пароль" style="ellipse;whiteSpace=wrap;html=1;fontSize=20;" parent="WIyWlLk6GJQsqaUBKTNV-1" vertex="1">
          <mxGeometry x="445" y="90" width="110" height="40" as="geometry" />
        </mxCell>
        <mxCell id="fLtGwt295DTugF5iX0_y-35" value="" style="endArrow=none;html=1;rounded=0;entryX=0.033;entryY=0.34;entryDx=0;entryDy=0;entryPerimeter=0;exitX=1;exitY=0.5;exitDx=0;exitDy=0;fontSize=20;" parent="WIyWlLk6GJQsqaUBKTNV-1" source="fLtGwt295DTugF5iX0_y-0" target="fLtGwt295DTugF5iX0_y-34" edge="1">
          <mxGeometry width="50" height="50" relative="1" as="geometry">
            <mxPoint x="340" y="110" as="sourcePoint" />
            <mxPoint x="390" y="60" as="targetPoint" />
          </mxGeometry>
        </mxCell>
        <mxCell id="fLtGwt295DTugF5iX0_y-36" value="" style="endArrow=none;html=1;rounded=0;entryX=0;entryY=0.5;entryDx=0;entryDy=0;exitX=1;exitY=0.25;exitDx=0;exitDy=0;fontSize=20;" parent="WIyWlLk6GJQsqaUBKTNV-1" source="fLtGwt295DTugF5iX0_y-0" target="fLtGwt295DTugF5iX0_y-32" edge="1">
          <mxGeometry width="50" height="50" relative="1" as="geometry">
            <mxPoint x="340" y="100" as="sourcePoint" />
            <mxPoint x="390" y="50" as="targetPoint" />
          </mxGeometry>
        </mxCell>
        <mxCell id="fLtGwt295DTugF5iX0_y-37" value="" style="endArrow=none;html=1;rounded=0;entryX=0.382;entryY=1.065;entryDx=0;entryDy=0;exitX=0.084;exitY=-0.046;exitDx=0;exitDy=0;exitPerimeter=0;fontSize=20;entryPerimeter=0;" parent="WIyWlLk6GJQsqaUBKTNV-1" source="fLtGwt295DTugF5iX0_y-1" target="fLtGwt295DTugF5iX0_y-31" edge="1">
          <mxGeometry width="50" height="50" relative="1" as="geometry">
            <mxPoint x="-550" y="-90" as="sourcePoint" />
            <mxPoint x="-500" y="-140" as="targetPoint" />
          </mxGeometry>
        </mxCell>
        <mxCell id="fLtGwt295DTugF5iX0_y-38" value="" style="endArrow=none;html=1;rounded=0;entryX=0.015;entryY=0.69;entryDx=0;entryDy=0;entryPerimeter=0;exitX=0.167;exitY=0;exitDx=0;exitDy=0;exitPerimeter=0;fontSize=20;" parent="WIyWlLk6GJQsqaUBKTNV-1" source="fLtGwt295DTugF5iX0_y-0" target="fLtGwt295DTugF5iX0_y-33" edge="1">
          <mxGeometry width="50" height="50" relative="1" as="geometry">
            <mxPoint x="170" y="330" as="sourcePoint" />
            <mxPoint x="220" y="280" as="targetPoint" />
          </mxGeometry>
        </mxCell>
        <mxCell id="fLtGwt295DTugF5iX0_y-39" value="код пользователя" style="ellipse;whiteSpace=wrap;html=1;fontSize=20;" parent="WIyWlLk6GJQsqaUBKTNV-1" vertex="1">
          <mxGeometry x="60" y="-70" width="180" height="40" as="geometry" />
        </mxCell>
        <mxCell id="fLtGwt295DTugF5iX0_y-40" value="" style="endArrow=none;html=1;rounded=0;entryX=0.404;entryY=1.07;entryDx=0;entryDy=0;entryPerimeter=0;exitX=0;exitY=0;exitDx=0;exitDy=0;fontSize=20;" parent="WIyWlLk6GJQsqaUBKTNV-1" source="fLtGwt295DTugF5iX0_y-0" target="fLtGwt295DTugF5iX0_y-39" edge="1">
          <mxGeometry width="50" height="50" relative="1" as="geometry">
            <mxPoint x="170" y="250" as="sourcePoint" />
            <mxPoint x="220" y="200" as="targetPoint" />
          </mxGeometry>
        </mxCell>
        <mxCell id="fLtGwt295DTugF5iX0_y-42" value="код специальности" style="ellipse;whiteSpace=wrap;html=1;fontSize=20;" parent="WIyWlLk6GJQsqaUBKTNV-1" vertex="1">
          <mxGeometry x="325" y="700" width="156" height="60" as="geometry" />
        </mxCell>
        <mxCell id="fLtGwt295DTugF5iX0_y-43" value="название" style="ellipse;whiteSpace=wrap;html=1;fontSize=20;" parent="WIyWlLk6GJQsqaUBKTNV-1" vertex="1">
          <mxGeometry x="258" y="750" width="110" height="40" as="geometry" />
        </mxCell>
        <mxCell id="fLtGwt295DTugF5iX0_y-44" value="код направления" style="ellipse;whiteSpace=wrap;html=1;fontSize=20;" parent="WIyWlLk6GJQsqaUBKTNV-1" vertex="1">
          <mxGeometry x="194" y="800" width="146" height="80" as="geometry" />
        </mxCell>
        <mxCell id="fLtGwt295DTugF5iX0_y-49" value="" style="endArrow=none;html=1;rounded=0;exitX=0.5;exitY=0;exitDx=0;exitDy=0;entryX=0.667;entryY=1.027;entryDx=0;entryDy=0;entryPerimeter=0;fontSize=20;" parent="WIyWlLk6GJQsqaUBKTNV-1" source="fLtGwt295DTugF5iX0_y-42" target="fLtGwt295DTugF5iX0_y-3" edge="1">
          <mxGeometry width="50" height="50" relative="1" as="geometry">
            <mxPoint x="304" y="720" as="sourcePoint" />
            <mxPoint x="354" y="660" as="targetPoint" />
          </mxGeometry>
        </mxCell>
        <mxCell id="fLtGwt295DTugF5iX0_y-51" value="" style="endArrow=none;html=1;rounded=0;entryX=0.5;entryY=0;entryDx=0;entryDy=0;exitX=0.36;exitY=1.013;exitDx=0;exitDy=0;exitPerimeter=0;fontSize=20;" parent="WIyWlLk6GJQsqaUBKTNV-1" source="fLtGwt295DTugF5iX0_y-3" target="fLtGwt295DTugF5iX0_y-43" edge="1">
          <mxGeometry width="50" height="50" relative="1" as="geometry">
            <mxPoint x="44" y="630" as="sourcePoint" />
            <mxPoint x="94" y="580" as="targetPoint" />
          </mxGeometry>
        </mxCell>
        <mxCell id="fLtGwt295DTugF5iX0_y-53" value="" style="endArrow=none;html=1;rounded=0;exitX=0.353;exitY=-0.02;exitDx=0;exitDy=0;exitPerimeter=0;entryX=0.113;entryY=1.013;entryDx=0;entryDy=0;entryPerimeter=0;fontSize=20;" parent="WIyWlLk6GJQsqaUBKTNV-1" source="fLtGwt295DTugF5iX0_y-44" target="fLtGwt295DTugF5iX0_y-3" edge="1">
          <mxGeometry width="50" height="50" relative="1" as="geometry">
            <mxPoint x="44" y="630" as="sourcePoint" />
            <mxPoint x="94" y="580" as="targetPoint" />
          </mxGeometry>
        </mxCell>
        <mxCell id="fLtGwt295DTugF5iX0_y-55" value="код карточки" style="ellipse;whiteSpace=wrap;html=1;fontSize=20;" parent="WIyWlLk6GJQsqaUBKTNV-1" vertex="1">
          <mxGeometry x="-550" y="-30" width="160" height="40" as="geometry" />
        </mxCell>
        <mxCell id="fLtGwt295DTugF5iX0_y-57" value="диагноз" style="ellipse;whiteSpace=wrap;html=1;fontSize=20;" parent="WIyWlLk6GJQsqaUBKTNV-1" vertex="1">
          <mxGeometry x="-270" y="385" width="110" height="40" as="geometry" />
        </mxCell>
        <mxCell id="fLtGwt295DTugF5iX0_y-59" value="код пользователя" style="ellipse;whiteSpace=wrap;html=1;fontSize=20;" parent="WIyWlLk6GJQsqaUBKTNV-1" vertex="1">
          <mxGeometry x="-580" y="-70" width="180" height="40" as="geometry" />
        </mxCell>
        <mxCell id="fLtGwt295DTugF5iX0_y-60" value="" style="endArrow=none;html=1;rounded=0;entryX=0.5;entryY=0;entryDx=0;entryDy=0;exitX=0;exitY=0.25;exitDx=0;exitDy=0;fontSize=20;" parent="WIyWlLk6GJQsqaUBKTNV-1" source="fLtGwt295DTugF5iX0_y-1" target="fLtGwt295DTugF5iX0_y-59" edge="1">
          <mxGeometry width="50" height="50" relative="1" as="geometry">
            <mxPoint x="-570" y="-200" as="sourcePoint" />
            <mxPoint x="-520" y="-250" as="targetPoint" />
          </mxGeometry>
        </mxCell>
        <mxCell id="fLtGwt295DTugF5iX0_y-62" value="" style="endArrow=none;html=1;rounded=0;exitX=0.5;exitY=0;exitDx=0;exitDy=0;entryX=0;entryY=1;entryDx=0;entryDy=0;fontSize=20;" parent="WIyWlLk6GJQsqaUBKTNV-1" source="fLtGwt295DTugF5iX0_y-57" target="fLtGwt295DTugF5iX0_y-4" edge="1">
          <mxGeometry width="50" height="50" relative="1" as="geometry">
            <mxPoint x="140" y="220" as="sourcePoint" />
            <mxPoint x="190" y="170" as="targetPoint" />
          </mxGeometry>
        </mxCell>
        <mxCell id="fLtGwt295DTugF5iX0_y-63" value="" style="endArrow=none;html=1;rounded=0;entryX=1;entryY=0.5;entryDx=0;entryDy=0;exitX=0.042;exitY=0.333;exitDx=0;exitDy=0;exitPerimeter=0;fontSize=20;" parent="WIyWlLk6GJQsqaUBKTNV-1" source="fLtGwt295DTugF5iX0_y-1" target="fLtGwt295DTugF5iX0_y-55" edge="1">
          <mxGeometry width="50" height="50" relative="1" as="geometry">
            <mxPoint x="-570" y="-200" as="sourcePoint" />
            <mxPoint x="-520" y="-250" as="targetPoint" />
          </mxGeometry>
        </mxCell>
        <mxCell id="fLtGwt295DTugF5iX0_y-64" value="специальность" style="ellipse;whiteSpace=wrap;html=1;fontSize=20;" parent="WIyWlLk6GJQsqaUBKTNV-1" vertex="1">
          <mxGeometry x="-440" y="590" width="160" height="50" as="geometry" />
        </mxCell>
        <mxCell id="fLtGwt295DTugF5iX0_y-65" value="код врача" style="ellipse;whiteSpace=wrap;html=1;fontSize=20;" parent="WIyWlLk6GJQsqaUBKTNV-1" vertex="1">
          <mxGeometry x="-370" y="690" width="110" height="40" as="geometry" />
        </mxCell>
        <mxCell id="fLtGwt295DTugF5iX0_y-70" value="изображение" style="ellipse;whiteSpace=wrap;html=1;fontSize=20;" parent="WIyWlLk6GJQsqaUBKTNV-1" vertex="1">
          <mxGeometry x="-400" y="640" width="130" height="45" as="geometry" />
        </mxCell>
        <mxCell id="fLtGwt295DTugF5iX0_y-71" value="" style="endArrow=none;html=1;rounded=0;entryX=0.5;entryY=0;entryDx=0;entryDy=0;exitX=0.424;exitY=1.026;exitDx=0;exitDy=0;exitPerimeter=0;fontSize=20;" parent="WIyWlLk6GJQsqaUBKTNV-1" source="fLtGwt295DTugF5iX0_y-2" target="fLtGwt295DTugF5iX0_y-70" edge="1">
          <mxGeometry width="50" height="50" relative="1" as="geometry">
            <mxPoint x="160" y="890" as="sourcePoint" />
            <mxPoint x="210" y="840" as="targetPoint" />
          </mxGeometry>
        </mxCell>
        <mxCell id="fLtGwt295DTugF5iX0_y-72" value="" style="endArrow=none;html=1;rounded=0;exitX=0.5;exitY=0;exitDx=0;exitDy=0;entryX=0.75;entryY=1;entryDx=0;entryDy=0;fontSize=20;" parent="WIyWlLk6GJQsqaUBKTNV-1" source="fLtGwt295DTugF5iX0_y-65" target="fLtGwt295DTugF5iX0_y-2" edge="1">
          <mxGeometry width="50" height="50" relative="1" as="geometry">
            <mxPoint x="160" y="890" as="sourcePoint" />
            <mxPoint x="210" y="840" as="targetPoint" />
          </mxGeometry>
        </mxCell>
        <mxCell id="fLtGwt295DTugF5iX0_y-73" value="" style="endArrow=none;html=1;rounded=0;exitX=1;exitY=0;exitDx=0;exitDy=0;entryX=0;entryY=0.5;entryDx=0;entryDy=0;fontSize=20;" parent="WIyWlLk6GJQsqaUBKTNV-1" source="fLtGwt295DTugF5iX0_y-64" target="fLtGwt295DTugF5iX0_y-2" edge="1">
          <mxGeometry width="50" height="50" relative="1" as="geometry">
            <mxPoint x="160" y="890" as="sourcePoint" />
            <mxPoint x="210" y="840" as="targetPoint" />
          </mxGeometry>
        </mxCell>
        <mxCell id="fLtGwt295DTugF5iX0_y-76" value="номер записи" style="ellipse;whiteSpace=wrap;html=1;fontSize=20;" parent="WIyWlLk6GJQsqaUBKTNV-1" vertex="1">
          <mxGeometry x="-420" y="210" width="130" height="50" as="geometry" />
        </mxCell>
        <mxCell id="fLtGwt295DTugF5iX0_y-77" value="&amp;nbsp;доктор" style="ellipse;whiteSpace=wrap;html=1;fontSize=20;" parent="WIyWlLk6GJQsqaUBKTNV-1" vertex="1">
          <mxGeometry x="-300" y="340" width="110" height="40" as="geometry" />
        </mxCell>
        <mxCell id="fLtGwt295DTugF5iX0_y-78" value="номер медицинской карточки" style="ellipse;whiteSpace=wrap;html=1;fontSize=20;" parent="WIyWlLk6GJQsqaUBKTNV-1" vertex="1">
          <mxGeometry x="-610" y="165" width="280" height="50" as="geometry" />
        </mxCell>
        <mxCell id="fLtGwt295DTugF5iX0_y-79" value="дата записи" style="ellipse;whiteSpace=wrap;html=1;fontSize=20;" parent="WIyWlLk6GJQsqaUBKTNV-1" vertex="1">
          <mxGeometry x="-310" y="120" width="130" height="50" as="geometry" />
        </mxCell>
        <mxCell id="fLtGwt295DTugF5iX0_y-81" value="время записи" style="ellipse;whiteSpace=wrap;html=1;fontSize=20;" parent="WIyWlLk6GJQsqaUBKTNV-1" vertex="1">
          <mxGeometry x="-420" y="250" width="130" height="50" as="geometry" />
        </mxCell>
        <mxCell id="fLtGwt295DTugF5iX0_y-83" value="" style="endArrow=none;html=1;rounded=0;exitX=0.714;exitY=0.068;exitDx=0;exitDy=0;exitPerimeter=0;entryX=0;entryY=0.5;entryDx=0;entryDy=0;fontSize=20;" parent="WIyWlLk6GJQsqaUBKTNV-1" source="fLtGwt295DTugF5iX0_y-77" target="fLtGwt295DTugF5iX0_y-4" edge="1">
          <mxGeometry width="50" height="50" relative="1" as="geometry">
            <mxPoint x="190" y="350" as="sourcePoint" />
            <mxPoint x="240" y="300" as="targetPoint" />
          </mxGeometry>
        </mxCell>
        <mxCell id="fLtGwt295DTugF5iX0_y-84" value="" style="endArrow=none;html=1;rounded=0;exitX=0.979;exitY=0.204;exitDx=0;exitDy=0;exitPerimeter=0;entryX=0;entryY=0.25;entryDx=0;entryDy=0;fontSize=20;" parent="WIyWlLk6GJQsqaUBKTNV-1" source="fLtGwt295DTugF5iX0_y-81" target="fLtGwt295DTugF5iX0_y-4" edge="1">
          <mxGeometry width="50" height="50" relative="1" as="geometry">
            <mxPoint x="190" y="350" as="sourcePoint" />
            <mxPoint x="-150" y="300" as="targetPoint" />
          </mxGeometry>
        </mxCell>
        <mxCell id="fLtGwt295DTugF5iX0_y-85" value="" style="endArrow=none;html=1;rounded=0;exitX=1;exitY=0.5;exitDx=0;exitDy=0;entryX=0;entryY=0;entryDx=0;entryDy=0;fontSize=20;" parent="WIyWlLk6GJQsqaUBKTNV-1" source="fLtGwt295DTugF5iX0_y-76" target="fLtGwt295DTugF5iX0_y-4" edge="1">
          <mxGeometry width="50" height="50" relative="1" as="geometry">
            <mxPoint x="190" y="350" as="sourcePoint" />
            <mxPoint x="240" y="300" as="targetPoint" />
          </mxGeometry>
        </mxCell>
        <mxCell id="fLtGwt295DTugF5iX0_y-86" value="" style="endArrow=none;html=1;rounded=0;exitX=1;exitY=0.5;exitDx=0;exitDy=0;entryX=0.11;entryY=-0.04;entryDx=0;entryDy=0;entryPerimeter=0;fontSize=20;" parent="WIyWlLk6GJQsqaUBKTNV-1" source="fLtGwt295DTugF5iX0_y-78" target="fLtGwt295DTugF5iX0_y-4" edge="1">
          <mxGeometry width="50" height="50" relative="1" as="geometry">
            <mxPoint x="190" y="350" as="sourcePoint" />
            <mxPoint x="240" y="300" as="targetPoint" />
          </mxGeometry>
        </mxCell>
        <mxCell id="fLtGwt295DTugF5iX0_y-87" value="" style="endArrow=none;html=1;rounded=0;exitX=1.003;exitY=0.775;exitDx=0;exitDy=0;exitPerimeter=0;entryX=0.25;entryY=0;entryDx=0;entryDy=0;fontSize=20;" parent="WIyWlLk6GJQsqaUBKTNV-1" source="fLtGwt295DTugF5iX0_y-79" target="fLtGwt295DTugF5iX0_y-4" edge="1">
          <mxGeometry width="50" height="50" relative="1" as="geometry">
            <mxPoint x="190" y="350" as="sourcePoint" />
            <mxPoint x="240" y="300" as="targetPoint" />
          </mxGeometry>
        </mxCell>
        <mxCell id="TH1MmDIYgOjLztTfOu1U-2" value="имя" style="ellipse;whiteSpace=wrap;html=1;fontSize=20;" parent="WIyWlLk6GJQsqaUBKTNV-1" vertex="1">
          <mxGeometry x="440" y="-20" width="115" height="30" as="geometry" />
        </mxCell>
        <mxCell id="TH1MmDIYgOjLztTfOu1U-3" value="" style="endArrow=none;html=1;rounded=0;entryX=0;entryY=0.5;entryDx=0;entryDy=0;exitX=0.5;exitY=0;exitDx=0;exitDy=0;fontSize=20;" parent="WIyWlLk6GJQsqaUBKTNV-1" source="fLtGwt295DTugF5iX0_y-0" target="TH1MmDIYgOjLztTfOu1U-2" edge="1">
          <mxGeometry width="50" height="50" relative="1" as="geometry">
            <mxPoint x="530" y="110.00000000000023" as="sourcePoint" />
            <mxPoint x="580" y="65" as="targetPoint" />
          </mxGeometry>
        </mxCell>
        <mxCell id="TH1MmDIYgOjLztTfOu1U-4" value="отчество" style="ellipse;whiteSpace=wrap;html=1;fontSize=20;" parent="WIyWlLk6GJQsqaUBKTNV-1" vertex="1">
          <mxGeometry x="369" y="-70" width="110" height="40" as="geometry" />
        </mxCell>
        <mxCell id="TH1MmDIYgOjLztTfOu1U-5" value="" style="endArrow=none;html=1;rounded=0;entryX=0;entryY=0.5;entryDx=0;entryDy=0;exitX=0.25;exitY=0;exitDx=0;exitDy=0;fontSize=20;" parent="WIyWlLk6GJQsqaUBKTNV-1" source="fLtGwt295DTugF5iX0_y-0" target="TH1MmDIYgOjLztTfOu1U-4" edge="1">
          <mxGeometry width="50" height="50" relative="1" as="geometry">
            <mxPoint x="405" y="57.50000000000023" as="sourcePoint" />
            <mxPoint x="455" y="12.5" as="targetPoint" />
          </mxGeometry>
        </mxCell>
        <mxCell id="TH1MmDIYgOjLztTfOu1U-10" value="паспорт" style="ellipse;whiteSpace=wrap;html=1;fontSize=20;" parent="WIyWlLk6GJQsqaUBKTNV-1" vertex="1">
          <mxGeometry x="-220" y="-180" width="120" height="50" as="geometry" />
        </mxCell>
        <mxCell id="TH1MmDIYgOjLztTfOu1U-11" value="" style="endArrow=none;html=1;rounded=0;entryX=0;entryY=0.5;entryDx=0;entryDy=0;fontSize=20;" parent="WIyWlLk6GJQsqaUBKTNV-1" source="fLtGwt295DTugF5iX0_y-1" target="TH1MmDIYgOjLztTfOu1U-10" edge="1">
          <mxGeometry width="50" height="50" relative="1" as="geometry">
            <mxPoint x="-210" y="-262.4999999999998" as="sourcePoint" />
            <mxPoint x="-160" y="-307.5" as="targetPoint" />
          </mxGeometry>
        </mxCell>
        <mxCell id="TH1MmDIYgOjLztTfOu1U-12" value="город" style="ellipse;whiteSpace=wrap;html=1;fontSize=20;" parent="WIyWlLk6GJQsqaUBKTNV-1" vertex="1">
          <mxGeometry x="-440" y="-180" width="110" height="40" as="geometry" />
        </mxCell>
        <mxCell id="TH1MmDIYgOjLztTfOu1U-13" value="" style="endArrow=none;html=1;rounded=0;entryX=0.404;entryY=1.07;entryDx=0;entryDy=0;entryPerimeter=0;exitX=0;exitY=0;exitDx=0;exitDy=0;fontSize=20;" parent="WIyWlLk6GJQsqaUBKTNV-1" source="fLtGwt295DTugF5iX0_y-1" target="TH1MmDIYgOjLztTfOu1U-12" edge="1">
          <mxGeometry width="50" height="50" relative="1" as="geometry">
            <mxPoint x="-460" y="-379.9999999999998" as="sourcePoint" />
            <mxPoint x="-600" y="-230" as="targetPoint" />
          </mxGeometry>
        </mxCell>
        <mxCell id="TH1MmDIYgOjLztTfOu1U-14" value="" style="endArrow=none;html=1;rounded=0;entryX=0.5;entryY=1;entryDx=0;entryDy=0;fontSize=20;" parent="WIyWlLk6GJQsqaUBKTNV-1" source="fLtGwt295DTugF5iX0_y-4" target="kJmuDE8QeEQOOdniS6ML-0" edge="1">
          <mxGeometry width="50" height="50" relative="1" as="geometry">
            <mxPoint x="130" y="360" as="sourcePoint" />
            <mxPoint x="406.1091270347397" y="355.8578643762694" as="targetPoint" />
          </mxGeometry>
        </mxCell>
        <mxCell id="TH1MmDIYgOjLztTfOu1U-16" value="полис" style="ellipse;whiteSpace=wrap;html=1;fontSize=20;" parent="WIyWlLk6GJQsqaUBKTNV-1" vertex="1">
          <mxGeometry x="-490" y="-130" width="110" height="40" as="geometry" />
        </mxCell>
        <mxCell id="TH1MmDIYgOjLztTfOu1U-17" value="" style="endArrow=none;html=1;rounded=0;entryX=0;entryY=1;entryDx=0;entryDy=0;exitX=-0.005;exitY=0.131;exitDx=0;exitDy=0;exitPerimeter=0;fontSize=20;" parent="WIyWlLk6GJQsqaUBKTNV-1" source="fLtGwt295DTugF5iX0_y-1" target="TH1MmDIYgOjLztTfOu1U-16" edge="1">
          <mxGeometry width="50" height="50" relative="1" as="geometry">
            <mxPoint x="-840" y="-502.4999999999998" as="sourcePoint" />
            <mxPoint x="-620" y="-485" as="targetPoint" />
          </mxGeometry>
        </mxCell>
        <mxCell id="Hr_rQK-t9yleDtHFgTo0-0" value="направление" style="rounded=0;whiteSpace=wrap;html=1;fontSize=20;" parent="WIyWlLk6GJQsqaUBKTNV-1" vertex="1">
          <mxGeometry x="514" y="295" width="120" height="60" as="geometry" />
        </mxCell>
        <mxCell id="Hr_rQK-t9yleDtHFgTo0-1" value="входит" style="rhombus;whiteSpace=wrap;html=1;fontSize=20;" parent="WIyWlLk6GJQsqaUBKTNV-1" vertex="1">
          <mxGeometry x="504" y="600" width="80" height="80" as="geometry" />
        </mxCell>
        <mxCell id="Hr_rQK-t9yleDtHFgTo0-2" value="" style="endArrow=none;html=1;rounded=0;entryX=0.25;entryY=1;entryDx=0;entryDy=0;exitX=0.5;exitY=0;exitDx=0;exitDy=0;fontSize=20;" parent="WIyWlLk6GJQsqaUBKTNV-1" source="Hr_rQK-t9yleDtHFgTo0-1" target="Hr_rQK-t9yleDtHFgTo0-0" edge="1">
          <mxGeometry width="50" height="50" relative="1" as="geometry">
            <mxPoint x="434" y="330" as="sourcePoint" />
            <mxPoint x="504" y="260" as="targetPoint" />
          </mxGeometry>
        </mxCell>
        <mxCell id="Hr_rQK-t9yleDtHFgTo0-3" value="1" style="text;html=1;align=center;verticalAlign=middle;resizable=0;points=[];autosize=1;strokeColor=none;fillColor=none;fontSize=20;" parent="WIyWlLk6GJQsqaUBKTNV-1" vertex="1">
          <mxGeometry x="590" y="365" width="30" height="40" as="geometry" />
        </mxCell>
        <mxCell id="Hr_rQK-t9yleDtHFgTo0-4" value="код направления" style="ellipse;whiteSpace=wrap;html=1;fontSize=20;" parent="WIyWlLk6GJQsqaUBKTNV-1" vertex="1">
          <mxGeometry x="634" y="170" width="176" height="50" as="geometry" />
        </mxCell>
        <mxCell id="Hr_rQK-t9yleDtHFgTo0-5" value="название" style="ellipse;whiteSpace=wrap;html=1;fontSize=20;" parent="WIyWlLk6GJQsqaUBKTNV-1" vertex="1">
          <mxGeometry x="540" y="215" width="110" height="40" as="geometry" />
        </mxCell>
        <mxCell id="Hr_rQK-t9yleDtHFgTo0-6" value="описание" style="ellipse;whiteSpace=wrap;html=1;fontSize=20;" parent="WIyWlLk6GJQsqaUBKTNV-1" vertex="1">
          <mxGeometry x="720" y="235" width="110" height="40" as="geometry" />
        </mxCell>
        <mxCell id="Hr_rQK-t9yleDtHFgTo0-7" value="изображение" style="ellipse;whiteSpace=wrap;html=1;fontSize=20;" parent="WIyWlLk6GJQsqaUBKTNV-1" vertex="1">
          <mxGeometry x="730" y="300" width="130" height="50" as="geometry" />
        </mxCell>
        <mxCell id="Hr_rQK-t9yleDtHFgTo0-8" value="" style="endArrow=none;html=1;rounded=0;exitX=0.5;exitY=1;exitDx=0;exitDy=0;entryX=0.75;entryY=0;entryDx=0;entryDy=0;fontSize=20;" parent="WIyWlLk6GJQsqaUBKTNV-1" source="Hr_rQK-t9yleDtHFgTo0-4" target="Hr_rQK-t9yleDtHFgTo0-0" edge="1">
          <mxGeometry width="50" height="50" relative="1" as="geometry">
            <mxPoint x="604" y="410" as="sourcePoint" />
            <mxPoint x="654" y="350" as="targetPoint" />
          </mxGeometry>
        </mxCell>
        <mxCell id="Hr_rQK-t9yleDtHFgTo0-9" value="" style="endArrow=none;html=1;rounded=0;entryX=0.691;entryY=0.931;entryDx=0;entryDy=0;exitX=0.5;exitY=0;exitDx=0;exitDy=0;fontSize=20;entryPerimeter=0;" parent="WIyWlLk6GJQsqaUBKTNV-1" source="Hr_rQK-t9yleDtHFgTo0-0" target="Hr_rQK-t9yleDtHFgTo0-5" edge="1">
          <mxGeometry width="50" height="50" relative="1" as="geometry">
            <mxPoint x="344" y="320" as="sourcePoint" />
            <mxPoint x="394" y="270" as="targetPoint" />
          </mxGeometry>
        </mxCell>
        <mxCell id="Hr_rQK-t9yleDtHFgTo0-10" value="" style="endArrow=none;html=1;rounded=0;exitX=0;exitY=0.5;exitDx=0;exitDy=0;entryX=1;entryY=0.5;entryDx=0;entryDy=0;fontSize=20;" parent="WIyWlLk6GJQsqaUBKTNV-1" source="Hr_rQK-t9yleDtHFgTo0-7" target="Hr_rQK-t9yleDtHFgTo0-0" edge="1">
          <mxGeometry width="50" height="50" relative="1" as="geometry">
            <mxPoint x="344" y="320" as="sourcePoint" />
            <mxPoint x="394" y="270" as="targetPoint" />
          </mxGeometry>
        </mxCell>
        <mxCell id="Hr_rQK-t9yleDtHFgTo0-11" value="" style="endArrow=none;html=1;rounded=0;exitX=0;exitY=1;exitDx=0;exitDy=0;entryX=1;entryY=0;entryDx=0;entryDy=0;fontSize=20;" parent="WIyWlLk6GJQsqaUBKTNV-1" source="Hr_rQK-t9yleDtHFgTo0-6" target="Hr_rQK-t9yleDtHFgTo0-0" edge="1">
          <mxGeometry width="50" height="50" relative="1" as="geometry">
            <mxPoint x="344" y="320" as="sourcePoint" />
            <mxPoint x="394" y="270" as="targetPoint" />
          </mxGeometry>
        </mxCell>
        <mxCell id="Hr_rQK-t9yleDtHFgTo0-12" value="" style="endArrow=none;html=1;rounded=0;entryX=1;entryY=0.5;entryDx=0;entryDy=0;exitX=0;exitY=0.5;exitDx=0;exitDy=0;fontSize=20;" parent="WIyWlLk6GJQsqaUBKTNV-1" source="Hr_rQK-t9yleDtHFgTo0-1" target="fLtGwt295DTugF5iX0_y-3" edge="1">
          <mxGeometry width="50" height="50" relative="1" as="geometry">
            <mxPoint x="84" y="630" as="sourcePoint" />
            <mxPoint x="134" y="580" as="targetPoint" />
          </mxGeometry>
        </mxCell>
        <mxCell id="Hr_rQK-t9yleDtHFgTo0-13" value="&lt;span style=&quot;color: rgb(0, 0, 0); font-family: Helvetica; font-size: 20px; font-style: normal; font-variant-ligatures: normal; font-variant-caps: normal; font-weight: 400; letter-spacing: normal; orphans: 2; text-align: center; text-indent: 0px; text-transform: none; widows: 2; word-spacing: 0px; -webkit-text-stroke-width: 0px; background-color: rgb(251, 251, 251); text-decoration-thickness: initial; text-decoration-style: initial; text-decoration-color: initial; float: none; display: inline !important;&quot;&gt;1&lt;/span&gt;" style="text;whiteSpace=wrap;html=1;fontSize=20;" parent="WIyWlLk6GJQsqaUBKTNV-1" vertex="1">
          <mxGeometry x="404" y="605" width="40" height="40" as="geometry" />
        </mxCell>
        <mxCell id="kJmuDE8QeEQOOdniS6ML-0" value="записи доктора" style="ellipse;whiteSpace=wrap;html=1;fontSize=20;" parent="WIyWlLk6GJQsqaUBKTNV-1" vertex="1">
          <mxGeometry x="-510" y="90" width="230" height="50" as="geometry" />
        </mxCell>
        <mxCell id="kJmuDE8QeEQOOdniS6ML-3" value="статус записи" style="ellipse;whiteSpace=wrap;html=1;fontSize=20;" parent="WIyWlLk6GJQsqaUBKTNV-1" vertex="1">
          <mxGeometry x="-390" y="300" width="130" height="50" as="geometry" />
        </mxCell>
        <mxCell id="kJmuDE8QeEQOOdniS6ML-4" value="" style="endArrow=none;html=1;rounded=0;exitX=0;exitY=0.5;exitDx=0;exitDy=0;entryX=1;entryY=0.5;entryDx=0;entryDy=0;fontSize=20;" parent="WIyWlLk6GJQsqaUBKTNV-1" source="fLtGwt295DTugF5iX0_y-4" target="kJmuDE8QeEQOOdniS6ML-3" edge="1">
          <mxGeometry width="50" height="50" relative="1" as="geometry">
            <mxPoint x="250" y="290" as="sourcePoint" />
            <mxPoint x="300" y="240" as="targetPoint" />
          </mxGeometry>
        </mxCell>
        <mxCell id="kJmuDE8QeEQOOdniS6ML-9" value="роль" style="ellipse;whiteSpace=wrap;html=1;fontSize=20;" parent="WIyWlLk6GJQsqaUBKTNV-1" vertex="1">
          <mxGeometry x="414" y="140" width="120" height="40" as="geometry" />
        </mxCell>
        <mxCell id="kJmuDE8QeEQOOdniS6ML-11" value="" style="endArrow=none;html=1;rounded=0;entryX=0;entryY=0.5;entryDx=0;entryDy=0;exitX=1;exitY=1;exitDx=0;exitDy=0;fontSize=20;" parent="WIyWlLk6GJQsqaUBKTNV-1" source="fLtGwt295DTugF5iX0_y-0" target="kJmuDE8QeEQOOdniS6ML-9" edge="1">
          <mxGeometry width="50" height="50" relative="1" as="geometry">
            <mxPoint x="140" y="290" as="sourcePoint" />
            <mxPoint x="190" y="240" as="targetPoint" />
          </mxGeometry>
        </mxCell>
        <mxCell id="kJmuDE8QeEQOOdniS6ML-13" value="фамилия" style="ellipse;whiteSpace=wrap;html=1;fontSize=20;" parent="WIyWlLk6GJQsqaUBKTNV-1" vertex="1">
          <mxGeometry x="-390" y="550" width="120" height="40" as="geometry" />
        </mxCell>
        <mxCell id="kJmuDE8QeEQOOdniS6ML-14" value="" style="endArrow=none;html=1;rounded=0;exitX=1;exitY=0.5;exitDx=0;exitDy=0;entryX=0;entryY=0;entryDx=0;entryDy=0;fontSize=20;" parent="WIyWlLk6GJQsqaUBKTNV-1" source="kJmuDE8QeEQOOdniS6ML-13" target="fLtGwt295DTugF5iX0_y-2" edge="1">
          <mxGeometry width="50" height="50" relative="1" as="geometry">
            <mxPoint x="140" y="450" as="sourcePoint" />
            <mxPoint x="190" y="400" as="targetPoint" />
          </mxGeometry>
        </mxCell>
        <mxCell id="kJmuDE8QeEQOOdniS6ML-15" value="1" style="text;html=1;align=center;verticalAlign=middle;resizable=0;points=[];autosize=1;strokeColor=none;fillColor=none;fontSize=20;" parent="WIyWlLk6GJQsqaUBKTNV-1" vertex="1">
          <mxGeometry x="-50" y="-30" width="30" height="40" as="geometry" />
        </mxCell>
        <mxCell id="kJmuDE8QeEQOOdniS6ML-16" value="1" style="text;html=1;align=center;verticalAlign=middle;resizable=0;points=[];autosize=1;strokeColor=none;fillColor=none;fontSize=20;" parent="WIyWlLk6GJQsqaUBKTNV-1" vertex="1">
          <mxGeometry x="295" y="110" width="30" height="40" as="geometry" />
        </mxCell>
        <mxCell id="kJmuDE8QeEQOOdniS6ML-17" value="1" style="text;html=1;align=center;verticalAlign=middle;resizable=0;points=[];autosize=1;strokeColor=none;fillColor=none;fontSize=20;" parent="WIyWlLk6GJQsqaUBKTNV-1" vertex="1">
          <mxGeometry x="-40" y="580" width="30" height="40" as="geometry" />
        </mxCell>
        <mxCell id="BJQIyub2QJIR3Z30HZnA-0" value="имя" style="ellipse;whiteSpace=wrap;html=1;fontSize=20;" vertex="1" parent="WIyWlLk6GJQsqaUBKTNV-1">
          <mxGeometry x="-350" y="510" width="120" height="40" as="geometry" />
        </mxCell>
        <mxCell id="BJQIyub2QJIR3Z30HZnA-1" value="отчество" style="ellipse;whiteSpace=wrap;html=1;fontSize=20;" vertex="1" parent="WIyWlLk6GJQsqaUBKTNV-1">
          <mxGeometry x="-240" y="490" width="120" height="40" as="geometry" />
        </mxCell>
        <mxCell id="BJQIyub2QJIR3Z30HZnA-2" value="почта" style="ellipse;whiteSpace=wrap;html=1;fontSize=20;" vertex="1" parent="WIyWlLk6GJQsqaUBKTNV-1">
          <mxGeometry x="-200" y="740" width="120" height="40" as="geometry" />
        </mxCell>
        <mxCell id="BJQIyub2QJIR3Z30HZnA-3" value="пароль" style="ellipse;whiteSpace=wrap;html=1;fontSize=20;" vertex="1" parent="WIyWlLk6GJQsqaUBKTNV-1">
          <mxGeometry x="-300" y="710" width="120" height="40" as="geometry" />
        </mxCell>
        <mxCell id="BJQIyub2QJIR3Z30HZnA-4" style="edgeStyle=orthogonalEdgeStyle;rounded=0;orthogonalLoop=1;jettySize=auto;html=1;exitX=0.5;exitY=1;exitDx=0;exitDy=0;fontSize=20;" edge="1" parent="WIyWlLk6GJQsqaUBKTNV-1" source="BJQIyub2QJIR3Z30HZnA-2" target="BJQIyub2QJIR3Z30HZnA-2">
          <mxGeometry relative="1" as="geometry" />
        </mxCell>
        <mxCell id="BJQIyub2QJIR3Z30HZnA-6" value="" style="endArrow=none;html=1;rounded=0;exitX=1;exitY=1;exitDx=0;exitDy=0;entryX=0.148;entryY=-0.05;entryDx=0;entryDy=0;entryPerimeter=0;fontSize=20;" edge="1" parent="WIyWlLk6GJQsqaUBKTNV-1" source="BJQIyub2QJIR3Z30HZnA-1" target="fLtGwt295DTugF5iX0_y-2">
          <mxGeometry width="50" height="50" relative="1" as="geometry">
            <mxPoint x="-90" y="570" as="sourcePoint" />
            <mxPoint x="-40" y="520" as="targetPoint" />
          </mxGeometry>
        </mxCell>
        <mxCell id="BJQIyub2QJIR3Z30HZnA-7" value="" style="endArrow=none;html=1;rounded=0;exitX=1;exitY=1;exitDx=0;exitDy=0;entryX=0.088;entryY=-0.023;entryDx=0;entryDy=0;entryPerimeter=0;fontSize=20;" edge="1" parent="WIyWlLk6GJQsqaUBKTNV-1" source="BJQIyub2QJIR3Z30HZnA-0" target="fLtGwt295DTugF5iX0_y-2">
          <mxGeometry width="50" height="50" relative="1" as="geometry">
            <mxPoint x="-90" y="570" as="sourcePoint" />
            <mxPoint x="-40" y="520" as="targetPoint" />
          </mxGeometry>
        </mxCell>
        <mxCell id="BJQIyub2QJIR3Z30HZnA-8" value="" style="endArrow=none;html=1;rounded=0;exitX=0.705;exitY=0.085;exitDx=0;exitDy=0;exitPerimeter=0;fontSize=20;" edge="1" parent="WIyWlLk6GJQsqaUBKTNV-1" source="BJQIyub2QJIR3Z30HZnA-3">
          <mxGeometry width="50" height="50" relative="1" as="geometry">
            <mxPoint x="-90" y="570" as="sourcePoint" />
            <mxPoint x="-100" y="670" as="targetPoint" />
          </mxGeometry>
        </mxCell>
        <mxCell id="BJQIyub2QJIR3Z30HZnA-9" value="" style="endArrow=none;html=1;rounded=0;exitX=0.585;exitY=-0.065;exitDx=0;exitDy=0;exitPerimeter=0;entryX=0.5;entryY=1;entryDx=0;entryDy=0;fontSize=20;" edge="1" parent="WIyWlLk6GJQsqaUBKTNV-1" source="BJQIyub2QJIR3Z30HZnA-2" target="fLtGwt295DTugF5iX0_y-2">
          <mxGeometry width="50" height="50" relative="1" as="geometry">
            <mxPoint x="-90" y="570" as="sourcePoint" />
            <mxPoint x="-80" y="670" as="targetPoint" />
          </mxGeometry>
        </mxCell>
      </root>
    </mxGraphModel>
  </diagram>
</mxfile>
